<svg width="282" height="182" viewBox="0 0 282 182" fill="none" xmlns="http://www.w3.org/2000/svg">
<path d="M0.6875 119.697C0.85026 138.415 7.03516 153.267 19.2422 164.253C31.2051 175.565 46.0977 181.302 63.9199 181.465C82.0677 181.302 97.0824 175.565 108.964 164.253C120.764 153.267 126.827 138.415 127.152 119.697V2.02148H100.175V116.768C100.012 128.893 96.5941 138.13 89.9209 144.478C83.085 151.151 74.418 154.487 63.9199 154.487C53.4219 154.487 44.8363 151.151 38.1631 144.478C31.3271 138.13 27.8278 128.893 27.665 116.768V2.02148H0.6875V119.697ZM252.885 130.195C245.398 146.39 234.086 154.487 218.949 154.487C212.602 154.487 207.149 153.145 202.592 150.459C197.953 148.18 194.21 145.21 191.361 141.548C187.862 137.723 185.543 132.718 184.403 126.533C183.101 120.348 182.45 108.507 182.45 91.0107C182.45 73.514 183.101 61.5918 184.403 55.2441C185.543 49.222 187.862 44.2985 191.361 40.4736C194.21 36.8115 197.953 33.7598 202.592 31.3184C207.149 28.9583 212.602 27.6969 218.949 27.5342C227.576 27.6969 234.9 30.179 240.922 34.9805C246.7 40.026 250.688 46.1296 252.885 53.291H281.449C278.601 38.3984 271.765 25.9066 260.941 15.8154C250.118 5.80566 236.12 0.719401 218.949 0.556641C204.952 0.719401 193.274 4.05599 183.915 10.5664C174.394 16.9954 167.476 24.3197 163.163 32.5391C160.478 36.8522 158.484 42.5081 157.182 49.5068C155.961 56.5055 155.351 70.3402 155.351 91.0107C155.351 111.356 155.961 125.109 157.182 132.271C157.833 136.095 158.646 139.269 159.623 141.792C160.681 144.233 161.861 146.797 163.163 149.482C167.476 157.702 174.394 164.945 183.915 171.211C193.274 177.721 204.952 181.139 218.949 181.465C234.411 181.465 247.799 177.07 259.11 168.281C270.097 159.411 277.543 146.715 281.449 130.195H252.885Z" fill="url(#paint0_linear)"/>
<path d="M0.6875 119.697H-1.3125V119.706L-1.31242 119.715L0.6875 119.697ZM19.2422 164.253L20.6163 162.8L20.5984 162.783L20.5801 162.766L19.2422 164.253ZM63.9199 181.465L63.9017 183.465L63.9198 183.465L63.9379 183.465L63.9199 181.465ZM108.964 164.253L107.601 162.789L107.593 162.797L107.585 162.804L108.964 164.253ZM127.152 119.697L129.152 119.732L129.152 119.715V119.697H127.152ZM127.152 2.02148H129.152V0.0214844H127.152V2.02148ZM100.175 2.02148V0.0214844H98.1748V2.02148H100.175ZM100.175 116.768L102.175 116.794L102.175 116.781V116.768H100.175ZM89.9209 144.478L88.5425 143.028L88.5331 143.037L88.5238 143.046L89.9209 144.478ZM38.1631 144.478L39.5773 143.063L39.5511 143.037L39.524 143.012L38.1631 144.478ZM27.665 116.768H25.665V116.781L25.6652 116.794L27.665 116.768ZM27.665 2.02148H29.665V0.0214844H27.665V2.02148ZM0.6875 2.02148V0.0214844H-1.3125V2.02148H0.6875ZM-1.31242 119.715C-1.14554 138.907 5.2201 154.324 17.9043 165.74L20.5801 162.766C8.85022 152.209 2.84606 137.923 2.68742 119.68L-1.31242 119.715ZM17.8681 165.706C30.2295 177.395 45.6201 183.298 63.9017 183.465L63.9382 179.465C46.5752 179.306 32.1807 173.735 20.6163 162.8L17.8681 165.706ZM63.9379 183.465C82.5343 183.298 98.0538 177.401 110.343 165.701L107.585 162.804C96.111 173.728 81.6011 179.306 63.902 179.465L63.9379 183.465ZM110.327 165.717C122.589 154.3 128.819 138.897 129.152 119.732L125.153 119.662C124.835 137.932 118.939 152.233 107.601 162.789L110.327 165.717ZM129.152 119.697V2.02148H125.152V119.697H129.152ZM127.152 0.0214844H100.175V4.02148H127.152V0.0214844ZM98.1748 2.02148V116.768H102.175V2.02148H98.1748ZM98.175 116.741C98.0171 128.506 94.7133 137.159 88.5425 143.028L91.2993 145.927C98.4749 139.101 102.007 129.281 102.175 116.794L98.175 116.741ZM88.5238 143.046C82.1001 149.317 73.9524 152.487 63.9199 152.487V156.487C74.8835 156.487 84.0698 152.984 91.318 145.909L88.5238 143.046ZM63.9199 152.487C53.887 152.487 45.8316 149.318 39.5773 143.063L36.7489 145.892C43.8409 152.984 52.9567 156.487 63.9199 156.487V152.487ZM39.524 143.012C33.1995 137.139 29.8226 128.492 29.6649 116.741L25.6652 116.794C25.833 129.295 29.4548 139.121 36.8022 145.943L39.524 143.012ZM29.665 116.768V2.02148H25.665V116.768H29.665ZM27.665 0.0214844H0.6875V4.02148H27.665V0.0214844ZM-1.3125 2.02148V119.697H2.6875V2.02148H-1.3125ZM252.885 130.195V128.195H251.606L251.069 129.356L252.885 130.195ZM202.592 150.459L203.607 148.736L203.542 148.697L203.474 148.664L202.592 150.459ZM191.361 141.548L192.94 140.32L192.891 140.257L192.837 140.198L191.361 141.548ZM184.403 126.533L186.37 126.171L186.366 126.146L186.36 126.121L184.403 126.533ZM184.403 55.2441L186.363 55.646L186.366 55.631L186.368 55.6159L184.403 55.2441ZM191.361 40.4736L192.837 41.8237L192.891 41.7646L192.94 41.7015L191.361 40.4736ZM202.592 31.3184L201.672 29.5423L201.66 29.5485L202.592 31.3184ZM218.949 27.5342L218.987 25.5345L218.942 25.5337L218.898 25.5348L218.949 27.5342ZM240.922 34.9805L242.237 33.474L242.204 33.4446L242.169 33.4167L240.922 34.9805ZM252.885 53.291L250.973 53.8777L251.406 55.291H252.885V53.291ZM281.449 53.291V55.291H283.868L283.414 52.9153L281.449 53.291ZM260.941 15.8154L262.305 14.3526L262.299 14.3471L260.941 15.8154ZM218.949 0.556641L218.968 -1.44327L218.947 -1.44347L218.926 -1.44322L218.949 0.556641ZM183.915 10.5664L185.034 12.2239L185.046 12.2162L185.057 12.2082L183.915 10.5664ZM163.163 32.5391L164.861 33.5962L164.9 33.5336L164.934 33.4684L163.163 32.5391ZM157.182 49.5068L155.215 49.141L155.213 49.1521L155.211 49.1632L157.182 49.5068ZM157.182 132.271L159.153 131.935L159.153 131.934L157.182 132.271ZM159.623 141.792L157.758 142.514L157.772 142.551L157.788 142.587L159.623 141.792ZM163.163 149.482L161.363 150.355L161.377 150.384L161.392 150.412L163.163 149.482ZM183.915 171.211L185.057 169.569L185.036 169.554L185.015 169.54L183.915 171.211ZM218.949 181.465L218.903 183.464L218.926 183.465H218.949V181.465ZM259.11 168.281L260.337 169.861L260.352 169.849L260.367 169.837L259.11 168.281ZM281.449 130.195L283.396 130.656L283.977 128.195H281.449V130.195ZM251.069 129.356C247.431 137.226 242.927 142.99 237.622 146.788C232.335 150.572 226.139 152.487 218.949 152.487V156.487C226.896 156.487 233.924 154.354 239.95 150.041C245.956 145.741 250.852 139.359 254.7 131.035L251.069 129.356ZM218.949 152.487C212.887 152.487 207.8 151.207 203.607 148.736L201.576 152.182C206.498 155.082 212.316 156.487 218.949 156.487V152.487ZM203.474 148.664C199.076 146.504 195.582 143.716 192.94 140.32L189.783 142.776C192.838 146.703 196.83 149.857 201.71 152.254L203.474 148.664ZM192.837 140.198C189.64 136.703 187.456 132.066 186.37 126.171L182.436 126.896C183.629 133.37 186.084 138.743 189.886 142.898L192.837 140.198ZM186.36 126.121C185.107 120.17 184.45 108.531 184.45 91.0107H180.45C180.45 108.484 181.095 120.527 182.446 126.945L186.36 126.121ZM184.45 91.0107C184.45 73.4954 185.107 61.7672 186.363 55.646L182.444 54.8423C181.096 61.4164 180.45 73.5326 180.45 91.0107H184.45ZM186.368 55.6159C187.451 49.8917 189.631 45.3277 192.837 41.8237L189.886 39.1236C186.093 43.2693 183.634 48.5523 182.438 54.8724L186.368 55.6159ZM192.94 41.7015C195.592 38.2915 199.104 35.4143 203.523 33.0882L201.66 29.5485C196.803 32.1052 192.827 35.3315 189.783 39.2458L192.94 41.7015ZM203.512 33.0943C207.744 30.9026 212.885 29.6903 219 29.5335L218.898 25.5348C212.318 25.7036 206.554 27.0141 201.672 29.5424L203.512 33.0943ZM218.911 29.5338C227.153 29.6893 234.038 32.05 239.675 36.5443L242.169 33.4167C235.761 28.3081 227.998 25.7045 218.987 25.5345L218.911 29.5338ZM239.606 36.4869C245.111 41.2937 248.887 47.0813 250.973 53.8777L254.797 52.7044C252.488 45.1778 248.289 38.7584 242.237 33.474L239.606 36.4869ZM252.885 55.291H281.449V51.291H252.885V55.291ZM283.414 52.9153C280.488 37.6168 273.447 24.7408 262.305 14.3526L259.578 17.2783C270.083 27.0724 276.714 39.1801 279.485 53.6667L283.414 52.9153ZM262.299 14.3471C251.052 3.94512 236.549 -1.27663 218.968 -1.44327L218.93 2.55655C235.692 2.71543 249.184 7.66621 259.583 17.2838L262.299 14.3471ZM218.926 -1.44322C204.62 -1.27688 192.529 2.13803 182.773 8.9246L185.057 12.2082C194.019 5.97395 205.283 2.71568 218.972 2.55651L218.926 -1.44322ZM182.796 8.90887C173.064 15.4797 165.891 23.0357 161.392 31.6097L164.934 33.4684C169.061 25.6036 175.723 18.5112 185.034 12.2239L182.796 8.90887ZM161.465 31.4819C158.607 36.0733 156.546 41.9882 155.215 49.141L159.148 49.8727C160.421 43.028 162.349 37.6311 164.861 33.5962L161.465 31.4819ZM155.211 49.1632C153.956 56.3596 153.351 70.3656 153.351 91.0107H157.351C157.351 70.3147 157.966 56.6515 159.152 49.8505L155.211 49.1632ZM153.351 91.0107C153.351 111.336 153.957 125.253 155.21 132.607L159.153 131.934C157.965 124.965 157.351 111.376 157.351 91.0107H153.351ZM155.21 132.606C155.875 136.511 156.717 139.825 157.758 142.514L161.488 141.07C160.576 138.713 159.791 135.679 159.153 131.935L155.21 132.606ZM157.788 142.587C158.858 145.058 160.05 147.647 161.363 150.355L164.963 148.61C163.672 145.947 162.504 143.409 161.458 140.997L157.788 142.587ZM161.392 150.412C165.895 158.992 173.075 166.471 182.816 172.882L185.015 169.54C175.712 163.418 169.058 156.411 164.934 148.553L161.392 150.412ZM182.773 172.853C192.521 179.634 204.603 183.132 218.903 183.464L218.996 179.465C205.301 179.147 194.027 175.809 185.057 169.569L182.773 172.853ZM218.949 183.465C234.818 183.465 248.646 178.944 260.337 169.861L257.883 166.702C246.951 175.196 234.005 179.465 218.949 179.465V183.465ZM260.367 169.837C271.764 160.635 279.409 147.517 283.396 130.656L279.503 129.735C275.677 145.914 268.429 158.186 257.854 166.725L260.367 169.837ZM281.449 128.195H252.885V132.195H281.449V128.195Z" fill="black"/>
<defs>
<linearGradient id="paint0_linear" x1="-15" y1="-34" x2="282" y2="237" gradientUnits="userSpaceOnUse">
<stop offset="0.307292" stop-color="#EF3B41"/>
<stop offset="1" stop-color="#0069FF"/>
</linearGradient>
</defs>
</svg>
